<?xml version="1.0" encoding="utf-8"?>
<!-- Generator: Adobe Illustrator 24.0.3, SVG Export Plug-In . SVG Version: 6.00 Build 0)  -->
<svg version="1.1" id="Layer_1" xmlns="http://www.w3.org/2000/svg" xmlns:xlink="http://www.w3.org/1999/xlink" x="0px" y="0px"
	 viewBox="0 0 111 28" style="enable-background:new 0 0 111 28;" xml:space="preserve">
<style type="text/css">
	.st0{fill:#007E3D;}
	.st1{fill:#231916;}
</style>
<path class="st0" d="M26.9,10.1c-1.5-1.5-3.5-2.4-5.8-2.4c-0.3,0-0.7,0-1,0.1c1.8,2.2,2.8,5,2.8,8.1c0,3.6-1.5,6.9-3.8,9.2l-3.5-3.5
	c1.5-1.5,2.4-3.5,2.4-5.8c0-2.3-1-4.4-2.6-5.9C14,11.4,13,13.5,13,15.8c0,2.3,0.9,4.3,2.4,5.8L12,25.1c-2.4-2.4-3.8-5.6-3.8-9.2
	c0-3.1,1.1-5.9,2.8-8.1c-0.3,0-0.7-0.1-1-0.1c-2.3,0-4.3,0.9-5.8,2.4L0.7,6.7C3.1,4.3,6.4,2.9,10,2.9c2,0,3.9,0.4,5.6,1.3
	c1.7-0.8,3.6-1.3,5.6-1.3c3.6,0,6.9,1.5,9.2,3.8L26.9,10.1"/>
<g>
	<path class="st1" d="M38.7,4.3v8l7.5-8h5.3L44,11.9l8.2,11.6h-5.3l-5.8-8.6l-2.4,2.5v6.2h-4.2V4.3H38.7z"/>
	<path class="st1" d="M53.8,10c0.4-1.2,1.1-2.3,1.9-3.2c0.8-0.9,1.8-1.6,3-2.2c1.2-0.5,2.5-0.8,4-0.8c1.5,0,2.8,0.3,4,0.8
		c1.2,0.5,2.2,1.2,3,2.2c0.8,0.9,1.4,2,1.9,3.2c0.4,1.2,0.6,2.6,0.6,4c0,1.4-0.2,2.7-0.6,3.9c-0.4,1.2-1.1,2.3-1.9,3.2
		c-0.8,0.9-1.8,1.6-3,2.1c-1.2,0.5-2.5,0.8-4,0.8c-1.5,0-2.8-0.3-4-0.8c-1.2-0.5-2.2-1.2-3-2.1c-0.8-0.9-1.4-2-1.9-3.2
		c-0.4-1.2-0.6-2.5-0.6-3.9C53.1,12.6,53.3,11.2,53.8,10z M57.6,16.4c0.2,0.8,0.5,1.5,0.9,2.1c0.4,0.6,1,1.1,1.6,1.5
		c0.7,0.4,1.5,0.6,2.4,0.6s1.8-0.2,2.4-0.6c0.7-0.4,1.2-0.9,1.6-1.5c0.4-0.6,0.7-1.3,0.9-2.1c0.2-0.8,0.3-1.5,0.3-2.4
		c0-0.8-0.1-1.7-0.3-2.5c-0.2-0.8-0.5-1.5-0.9-2.1c-0.4-0.6-1-1.1-1.6-1.5c-0.7-0.4-1.5-0.6-2.4-0.6S60.8,7.6,60.1,8
		c-0.7,0.4-1.2,0.9-1.6,1.5c-0.4,0.6-0.7,1.3-0.9,2.1c-0.2,0.8-0.3,1.6-0.3,2.5C57.3,14.8,57.4,15.6,57.6,16.4z"/>
	<path class="st1" d="M84,4.3c0.9,0,1.8,0.1,2.5,0.2c0.8,0.2,1.4,0.4,1.9,0.8c0.5,0.4,1,0.9,1.3,1.5c0.3,0.6,0.4,1.4,0.4,2.3
		c0,1-0.2,1.8-0.7,2.4c-0.4,0.6-1.1,1.2-2,1.6c1.2,0.3,2.1,0.9,2.7,1.8c0.6,0.9,0.9,1.9,0.9,3.1c0,1-0.2,1.8-0.6,2.5
		c-0.4,0.7-0.9,1.3-1.5,1.7c-0.6,0.4-1.4,0.8-2.2,1c-0.8,0.2-1.7,0.3-2.5,0.3h-9.3V4.3H84z M83.4,12.1c0.8,0,1.4-0.2,1.9-0.5
		c0.5-0.4,0.7-0.9,0.7-1.8c0-0.4-0.1-0.8-0.2-1.1c-0.2-0.3-0.4-0.5-0.6-0.7c-0.3-0.2-0.6-0.3-0.9-0.3c-0.4-0.1-0.7-0.1-1.1-0.1h-4
		v4.5H83.4z M83.7,20.2c0.4,0,0.8,0,1.2-0.1c0.4-0.1,0.7-0.2,1-0.4c0.3-0.2,0.5-0.4,0.7-0.8c0.2-0.3,0.3-0.7,0.3-1.2
		c0-1-0.3-1.7-0.8-2.1c-0.6-0.4-1.3-0.6-2.2-0.6h-4.6v5.3H83.7z"/>
	<path class="st1" d="M108.3,4.3v3.6H98.1V12h9.3v3.3h-9.3V20h10.4v3.6H93.9V4.3H108.3z"/>
</g>
</svg>
